# xmcd
#
# Track frame offsets:
#	150
#	18010
#	46722
#	71409
#	87175
#	105949
#	119489
#	136427
#	157773
#	179560
#	200406
#	224568
#	242848
#	259168
#	280811
#	298144
#	315774
#
# Disc length: 4524 seconds
#
# Revision: 0
# Processed by: cddbd v1.5.2PL0 Copyright (c) Steve Scherf et al.
# Submitted via: dBpowerAMP V4.0
#
DISCID=eb11aa11
DTITLE=Murray McLauchlan - Songs From The Street [CDOne)
DYEAR=1900
DGENRE=Country
TTITLE0=Honky Red
TTITLE1=Child's Song
TTITLE2=Sixteen Lanes Of Highway
TTITLE3=Old Man's Song
TTITLE4=Carmelita
TTITLE5=Farmer's Song
TTITLE6=You Need A New Lover Now
TTITLE7=Golden Trumpet
TTITLE8=Revelations
TTITLE9=Down By The Henry Moore
TTITLE10=Shoeshine Workin' Song
TTITLE11=Maybe Tonight
TTITLE12=Do You Dream Of Being Somebody
TTITLE13=Sweeping The Spotlight Away
TTITLE14=Cross Country
TTITLE15=So Far From You
TTITLE16=Harder To Get Along
EXTD=
EXTT0=
EXTT1=
EXTT2=
EXTT3=
EXTT4=
EXTT5=
EXTT6=
EXTT7=
EXTT8=
EXTT9=
EXTT10=
EXTT11=
EXTT12=
EXTT13=
EXTT14=
EXTT15=
EXTT16=
PLAYORDER=
